<mxfile host="app.diagrams.net" modified="2023-11-02T15:26:30.310Z" agent="Mozilla/5.0 (Windows NT 10.0; Win64; x64; rv:109.0) Gecko/20100101 Firefox/119.0" version="22.0.8" etag="tJ2uCY5xdP08DgUS69If" type="github">
  <diagram name="Sida-1" id="lpOswOgIRObHjpSG-apg">
    <mxGraphModel>
      <root>
        <mxCell id="0" />
        <mxCell id="1" parent="0" />
      </root>
    </mxGraphModel>
  </diagram>
</mxfile>
